<mxfile host="app.diagrams.net" modified="2021-10-29T16:17:01.696Z" agent="5.0 (Windows NT 10.0; Win64; x64) AppleWebKit/537.36 (KHTML, like Gecko) Chrome/95.0.4638.54 Safari/537.36" etag="1iXBjgiciwJfkiZCyzAl" version="15.6.2" type="github" pages="3">
  <diagram id="M3t2jiatockKHlDBZenp" name="MyAnswers">
    <mxGraphModel dx="1673" dy="978" grid="1" gridSize="10" guides="1" tooltips="1" connect="1" arrows="1" fold="1" page="1" pageScale="1" pageWidth="850" pageHeight="1100" math="0" shadow="0">
      <root>
        <mxCell id="h7BoS70R2w114HKqy_8a-0" />
        <mxCell id="h7BoS70R2w114HKqy_8a-1" parent="h7BoS70R2w114HKqy_8a-0" />
        <mxCell id="h7BoS70R2w114HKqy_8a-24" style="edgeStyle=orthogonalEdgeStyle;rounded=0;orthogonalLoop=1;jettySize=auto;html=1;entryX=0.5;entryY=0;entryDx=0;entryDy=0;endArrow=none;endFill=0;" parent="h7BoS70R2w114HKqy_8a-1" source="h7BoS70R2w114HKqy_8a-2" target="h7BoS70R2w114HKqy_8a-20" edge="1">
          <mxGeometry relative="1" as="geometry" />
        </mxCell>
        <mxCell id="h7BoS70R2w114HKqy_8a-2" value="CourseÂ " style="swimlane;fontStyle=0;childLayout=stackLayout;horizontal=1;startSize=26;horizontalStack=0;resizeParent=1;resizeParentMax=0;resizeLast=0;collapsible=1;marginBottom=0;align=center;fontSize=14;" parent="h7BoS70R2w114HKqy_8a-1" vertex="1">
          <mxGeometry x="41" y="130" width="160" height="116" as="geometry" />
        </mxCell>
        <mxCell id="h7BoS70R2w114HKqy_8a-3" value="Item 1" style="text;strokeColor=none;fillColor=none;spacingLeft=4;spacingRight=4;overflow=hidden;rotatable=0;points=[[0,0.5],[1,0.5]];portConstraint=eastwest;fontSize=12;" parent="h7BoS70R2w114HKqy_8a-2" vertex="1">
          <mxGeometry y="26" width="160" height="30" as="geometry" />
        </mxCell>
        <mxCell id="h7BoS70R2w114HKqy_8a-4" value="Item 2" style="text;strokeColor=none;fillColor=none;spacingLeft=4;spacingRight=4;overflow=hidden;rotatable=0;points=[[0,0.5],[1,0.5]];portConstraint=eastwest;fontSize=12;" parent="h7BoS70R2w114HKqy_8a-2" vertex="1">
          <mxGeometry y="56" width="160" height="30" as="geometry" />
        </mxCell>
        <mxCell id="h7BoS70R2w114HKqy_8a-5" value="Item 3" style="text;strokeColor=none;fillColor=none;spacingLeft=4;spacingRight=4;overflow=hidden;rotatable=0;points=[[0,0.5],[1,0.5]];portConstraint=eastwest;fontSize=12;" parent="h7BoS70R2w114HKqy_8a-2" vertex="1">
          <mxGeometry y="86" width="160" height="30" as="geometry" />
        </mxCell>
        <mxCell id="h7BoS70R2w114HKqy_8a-98" style="edgeStyle=orthogonalEdgeStyle;rounded=0;orthogonalLoop=1;jettySize=auto;html=1;exitX=0.5;exitY=0;exitDx=0;exitDy=0;entryX=0.25;entryY=0;entryDx=0;entryDy=0;endArrow=none;endFill=0;" parent="h7BoS70R2w114HKqy_8a-1" source="h7BoS70R2w114HKqy_8a-6" target="h7BoS70R2w114HKqy_8a-34" edge="1">
          <mxGeometry relative="1" as="geometry" />
        </mxCell>
        <mxCell id="h7BoS70R2w114HKqy_8a-6" value="Module" style="swimlane;fontStyle=0;childLayout=stackLayout;horizontal=1;startSize=26;horizontalStack=0;resizeParent=1;resizeParentMax=0;resizeLast=0;collapsible=1;marginBottom=0;align=center;fontSize=14;" parent="h7BoS70R2w114HKqy_8a-1" vertex="1">
          <mxGeometry x="386" y="130" width="160" height="116" as="geometry" />
        </mxCell>
        <mxCell id="h7BoS70R2w114HKqy_8a-7" value="Item 1" style="text;strokeColor=none;fillColor=none;spacingLeft=4;spacingRight=4;overflow=hidden;rotatable=0;points=[[0,0.5],[1,0.5]];portConstraint=eastwest;fontSize=12;" parent="h7BoS70R2w114HKqy_8a-6" vertex="1">
          <mxGeometry y="26" width="160" height="30" as="geometry" />
        </mxCell>
        <mxCell id="h7BoS70R2w114HKqy_8a-8" value="Item 2" style="text;strokeColor=none;fillColor=none;spacingLeft=4;spacingRight=4;overflow=hidden;rotatable=0;points=[[0,0.5],[1,0.5]];portConstraint=eastwest;fontSize=12;" parent="h7BoS70R2w114HKqy_8a-6" vertex="1">
          <mxGeometry y="56" width="160" height="30" as="geometry" />
        </mxCell>
        <mxCell id="h7BoS70R2w114HKqy_8a-9" value="Item 3" style="text;strokeColor=none;fillColor=none;spacingLeft=4;spacingRight=4;overflow=hidden;rotatable=0;points=[[0,0.5],[1,0.5]];portConstraint=eastwest;fontSize=12;" parent="h7BoS70R2w114HKqy_8a-6" vertex="1">
          <mxGeometry y="86" width="160" height="30" as="geometry" />
        </mxCell>
        <mxCell id="h7BoS70R2w114HKqy_8a-11" style="edgeStyle=orthogonalEdgeStyle;rounded=0;orthogonalLoop=1;jettySize=auto;html=1;entryX=0;entryY=0.5;entryDx=0;entryDy=0;endArrow=none;endFill=0;" parent="h7BoS70R2w114HKqy_8a-1" source="h7BoS70R2w114HKqy_8a-4" target="h7BoS70R2w114HKqy_8a-8" edge="1">
          <mxGeometry relative="1" as="geometry" />
        </mxCell>
        <mxCell id="h7BoS70R2w114HKqy_8a-12" value="shares" style="text;html=1;strokeColor=none;fillColor=none;align=center;verticalAlign=middle;whiteSpace=wrap;rounded=0;" parent="h7BoS70R2w114HKqy_8a-1" vertex="1">
          <mxGeometry x="246" y="173" width="60" height="30" as="geometry" />
        </mxCell>
        <mxCell id="h7BoS70R2w114HKqy_8a-13" value="" style="triangle;whiteSpace=wrap;html=1;fillColor=#000000;" parent="h7BoS70R2w114HKqy_8a-1" vertex="1">
          <mxGeometry x="305" y="178" width="20" height="20" as="geometry" />
        </mxCell>
        <mxCell id="h7BoS70R2w114HKqy_8a-17" value="1..*" style="text;html=1;strokeColor=none;fillColor=none;align=center;verticalAlign=middle;whiteSpace=wrap;rounded=0;" parent="h7BoS70R2w114HKqy_8a-1" vertex="1">
          <mxGeometry x="340" y="203" width="40" height="23" as="geometry" />
        </mxCell>
        <mxCell id="h7BoS70R2w114HKqy_8a-18" value="0..*" style="text;html=1;strokeColor=none;fillColor=none;align=center;verticalAlign=middle;whiteSpace=wrap;rounded=0;" parent="h7BoS70R2w114HKqy_8a-1" vertex="1">
          <mxGeometry x="201" y="203" width="40" height="23" as="geometry" />
        </mxCell>
        <mxCell id="h7BoS70R2w114HKqy_8a-20" value="Student" style="swimlane;fontStyle=0;childLayout=stackLayout;horizontal=1;startSize=26;horizontalStack=0;resizeParent=1;resizeParentMax=0;resizeLast=0;collapsible=1;marginBottom=0;align=center;fontSize=14;" parent="h7BoS70R2w114HKqy_8a-1" vertex="1">
          <mxGeometry x="41" y="360" width="160" height="116" as="geometry" />
        </mxCell>
        <mxCell id="h7BoS70R2w114HKqy_8a-21" value="Item 1" style="text;strokeColor=none;fillColor=none;spacingLeft=4;spacingRight=4;overflow=hidden;rotatable=0;points=[[0,0.5],[1,0.5]];portConstraint=eastwest;fontSize=12;" parent="h7BoS70R2w114HKqy_8a-20" vertex="1">
          <mxGeometry y="26" width="160" height="30" as="geometry" />
        </mxCell>
        <mxCell id="h7BoS70R2w114HKqy_8a-22" value="Item 2" style="text;strokeColor=none;fillColor=none;spacingLeft=4;spacingRight=4;overflow=hidden;rotatable=0;points=[[0,0.5],[1,0.5]];portConstraint=eastwest;fontSize=12;" parent="h7BoS70R2w114HKqy_8a-20" vertex="1">
          <mxGeometry y="56" width="160" height="30" as="geometry" />
        </mxCell>
        <mxCell id="h7BoS70R2w114HKqy_8a-23" value="Item 3" style="text;strokeColor=none;fillColor=none;spacingLeft=4;spacingRight=4;overflow=hidden;rotatable=0;points=[[0,0.5],[1,0.5]];portConstraint=eastwest;fontSize=12;" parent="h7BoS70R2w114HKqy_8a-20" vertex="1">
          <mxGeometry y="86" width="160" height="30" as="geometry" />
        </mxCell>
        <mxCell id="h7BoS70R2w114HKqy_8a-25" value="follows" style="text;html=1;strokeColor=none;fillColor=none;align=center;verticalAlign=middle;whiteSpace=wrap;rounded=0;" parent="h7BoS70R2w114HKqy_8a-1" vertex="1">
          <mxGeometry x="121" y="290" width="60" height="30" as="geometry" />
        </mxCell>
        <mxCell id="h7BoS70R2w114HKqy_8a-26" value="" style="triangle;whiteSpace=wrap;html=1;fillColor=#000000;direction=north;" parent="h7BoS70R2w114HKqy_8a-1" vertex="1">
          <mxGeometry x="181" y="295" width="20" height="20" as="geometry" />
        </mxCell>
        <mxCell id="h7BoS70R2w114HKqy_8a-27" value="0..1" style="text;html=1;strokeColor=none;fillColor=none;align=center;verticalAlign=middle;whiteSpace=wrap;rounded=0;" parent="h7BoS70R2w114HKqy_8a-1" vertex="1">
          <mxGeometry x="121" y="246" width="40" height="23" as="geometry" />
        </mxCell>
        <mxCell id="h7BoS70R2w114HKqy_8a-28" value="1..*" style="text;html=1;strokeColor=none;fillColor=none;align=center;verticalAlign=middle;whiteSpace=wrap;rounded=0;" parent="h7BoS70R2w114HKqy_8a-1" vertex="1">
          <mxGeometry x="121" y="337" width="40" height="23" as="geometry" />
        </mxCell>
        <mxCell id="h7BoS70R2w114HKqy_8a-29" style="edgeStyle=orthogonalEdgeStyle;rounded=0;orthogonalLoop=1;jettySize=auto;html=1;endArrow=none;endFill=0;" parent="h7BoS70R2w114HKqy_8a-1" source="h7BoS70R2w114HKqy_8a-22" target="h7BoS70R2w114HKqy_8a-6" edge="1">
          <mxGeometry relative="1" as="geometry" />
        </mxCell>
        <mxCell id="h7BoS70R2w114HKqy_8a-30" value="takes" style="text;html=1;strokeColor=none;fillColor=none;align=center;verticalAlign=middle;whiteSpace=wrap;rounded=0;" parent="h7BoS70R2w114HKqy_8a-1" vertex="1">
          <mxGeometry x="265" y="400" width="60" height="30" as="geometry" />
        </mxCell>
        <mxCell id="h7BoS70R2w114HKqy_8a-31" value="" style="triangle;whiteSpace=wrap;html=1;fillColor=#000000;direction=east;" parent="h7BoS70R2w114HKqy_8a-1" vertex="1">
          <mxGeometry x="320" y="405" width="20" height="20" as="geometry" />
        </mxCell>
        <mxCell id="h7BoS70R2w114HKqy_8a-32" value="1..*" style="text;html=1;strokeColor=none;fillColor=none;align=center;verticalAlign=middle;whiteSpace=wrap;rounded=0;" parent="h7BoS70R2w114HKqy_8a-1" vertex="1">
          <mxGeometry x="466" y="246" width="40" height="23" as="geometry" />
        </mxCell>
        <mxCell id="h7BoS70R2w114HKqy_8a-33" value="0..*" style="text;html=1;strokeColor=none;fillColor=none;align=center;verticalAlign=middle;whiteSpace=wrap;rounded=0;" parent="h7BoS70R2w114HKqy_8a-1" vertex="1">
          <mxGeometry x="201" y="407" width="40" height="23" as="geometry" />
        </mxCell>
        <mxCell id="h7BoS70R2w114HKqy_8a-66" style="edgeStyle=orthogonalEdgeStyle;rounded=0;orthogonalLoop=1;jettySize=auto;html=1;entryX=0.5;entryY=0;entryDx=0;entryDy=0;endArrow=none;endFill=0;" parent="h7BoS70R2w114HKqy_8a-1" source="h7BoS70R2w114HKqy_8a-34" target="h7BoS70R2w114HKqy_8a-54" edge="1">
          <mxGeometry relative="1" as="geometry">
            <Array as="points">
              <mxPoint x="864" y="560" />
              <mxPoint x="758" y="560" />
            </Array>
          </mxGeometry>
        </mxCell>
        <mxCell id="h7BoS70R2w114HKqy_8a-67" style="edgeStyle=orthogonalEdgeStyle;rounded=0;orthogonalLoop=1;jettySize=auto;html=1;endArrow=none;endFill=0;" parent="h7BoS70R2w114HKqy_8a-1" source="h7BoS70R2w114HKqy_8a-34" target="h7BoS70R2w114HKqy_8a-58" edge="1">
          <mxGeometry relative="1" as="geometry">
            <Array as="points">
              <mxPoint x="864" y="560" />
              <mxPoint x="970" y="560" />
            </Array>
          </mxGeometry>
        </mxCell>
        <mxCell id="h7BoS70R2w114HKqy_8a-34" value="Academic Staff" style="swimlane;fontStyle=0;childLayout=stackLayout;horizontal=1;startSize=26;horizontalStack=0;resizeParent=1;resizeParentMax=0;resizeLast=0;collapsible=1;marginBottom=0;align=center;fontSize=14;" parent="h7BoS70R2w114HKqy_8a-1" vertex="1">
          <mxGeometry x="784" y="130" width="160" height="116" as="geometry" />
        </mxCell>
        <mxCell id="h7BoS70R2w114HKqy_8a-35" value="Item 1" style="text;strokeColor=none;fillColor=none;spacingLeft=4;spacingRight=4;overflow=hidden;rotatable=0;points=[[0,0.5],[1,0.5]];portConstraint=eastwest;fontSize=12;" parent="h7BoS70R2w114HKqy_8a-34" vertex="1">
          <mxGeometry y="26" width="160" height="30" as="geometry" />
        </mxCell>
        <mxCell id="h7BoS70R2w114HKqy_8a-36" value="Item 2" style="text;strokeColor=none;fillColor=none;spacingLeft=4;spacingRight=4;overflow=hidden;rotatable=0;points=[[0,0.5],[1,0.5]];portConstraint=eastwest;fontSize=12;" parent="h7BoS70R2w114HKqy_8a-34" vertex="1">
          <mxGeometry y="56" width="160" height="30" as="geometry" />
        </mxCell>
        <mxCell id="h7BoS70R2w114HKqy_8a-37" value="Item 3" style="text;strokeColor=none;fillColor=none;spacingLeft=4;spacingRight=4;overflow=hidden;rotatable=0;points=[[0,0.5],[1,0.5]];portConstraint=eastwest;fontSize=12;" parent="h7BoS70R2w114HKqy_8a-34" vertex="1">
          <mxGeometry y="86" width="160" height="30" as="geometry" />
        </mxCell>
        <mxCell id="h7BoS70R2w114HKqy_8a-80" style="edgeStyle=orthogonalEdgeStyle;rounded=0;orthogonalLoop=1;jettySize=auto;html=1;exitX=0.75;exitY=0;exitDx=0;exitDy=0;entryX=1;entryY=0.5;entryDx=0;entryDy=0;endArrow=none;endFill=0;" parent="h7BoS70R2w114HKqy_8a-34" source="h7BoS70R2w114HKqy_8a-34" target="h7BoS70R2w114HKqy_8a-36" edge="1">
          <mxGeometry relative="1" as="geometry">
            <Array as="points">
              <mxPoint x="120" y="-20" />
              <mxPoint x="210" y="-20" />
              <mxPoint x="210" y="71" />
            </Array>
          </mxGeometry>
        </mxCell>
        <mxCell id="h7BoS70R2w114HKqy_8a-43" style="edgeStyle=orthogonalEdgeStyle;rounded=0;orthogonalLoop=1;jettySize=auto;html=1;endArrow=none;endFill=0;entryX=-0.019;entryY=0.2;entryDx=0;entryDy=0;entryPerimeter=0;exitX=0.831;exitY=0.967;exitDx=0;exitDy=0;exitPerimeter=0;" parent="h7BoS70R2w114HKqy_8a-1" source="h7BoS70R2w114HKqy_8a-9" target="h7BoS70R2w114HKqy_8a-55" edge="1">
          <mxGeometry relative="1" as="geometry" />
        </mxCell>
        <mxCell id="h7BoS70R2w114HKqy_8a-44" value="delivers" style="text;html=1;strokeColor=none;fillColor=none;align=center;verticalAlign=middle;whiteSpace=wrap;rounded=0;" parent="h7BoS70R2w114HKqy_8a-1" vertex="1">
          <mxGeometry x="655" y="77" width="60" height="30" as="geometry" />
        </mxCell>
        <mxCell id="h7BoS70R2w114HKqy_8a-45" value="" style="triangle;whiteSpace=wrap;html=1;fillColor=#000000;rotation=0;direction=west;" parent="h7BoS70R2w114HKqy_8a-1" vertex="1">
          <mxGeometry x="635" y="82" width="20" height="20" as="geometry" />
        </mxCell>
        <mxCell id="h7BoS70R2w114HKqy_8a-46" value="0..*" style="text;html=1;strokeColor=none;fillColor=none;align=center;verticalAlign=middle;whiteSpace=wrap;rounded=0;" parent="h7BoS70R2w114HKqy_8a-1" vertex="1">
          <mxGeometry x="838" y="106" width="40" height="23" as="geometry" />
        </mxCell>
        <mxCell id="h7BoS70R2w114HKqy_8a-47" value="1..*" style="text;html=1;strokeColor=none;fillColor=none;align=center;verticalAlign=middle;whiteSpace=wrap;rounded=0;" parent="h7BoS70R2w114HKqy_8a-1" vertex="1">
          <mxGeometry x="420" y="105" width="40" height="23" as="geometry" />
        </mxCell>
        <mxCell id="h7BoS70R2w114HKqy_8a-54" value="FulltimeLecturer" style="swimlane;fontStyle=0;childLayout=stackLayout;horizontal=1;startSize=26;horizontalStack=0;resizeParent=1;resizeParentMax=0;resizeLast=0;collapsible=1;marginBottom=0;align=center;fontSize=14;" parent="h7BoS70R2w114HKqy_8a-1" vertex="1">
          <mxGeometry x="678" y="620" width="160" height="116" as="geometry" />
        </mxCell>
        <mxCell id="h7BoS70R2w114HKqy_8a-55" value="Item 1" style="text;strokeColor=none;fillColor=none;spacingLeft=4;spacingRight=4;overflow=hidden;rotatable=0;points=[[0,0.5],[1,0.5]];portConstraint=eastwest;fontSize=12;" parent="h7BoS70R2w114HKqy_8a-54" vertex="1">
          <mxGeometry y="26" width="160" height="30" as="geometry" />
        </mxCell>
        <mxCell id="h7BoS70R2w114HKqy_8a-56" value="Item 2" style="text;strokeColor=none;fillColor=none;spacingLeft=4;spacingRight=4;overflow=hidden;rotatable=0;points=[[0,0.5],[1,0.5]];portConstraint=eastwest;fontSize=12;" parent="h7BoS70R2w114HKqy_8a-54" vertex="1">
          <mxGeometry y="56" width="160" height="30" as="geometry" />
        </mxCell>
        <mxCell id="h7BoS70R2w114HKqy_8a-57" value="Item 3" style="text;strokeColor=none;fillColor=none;spacingLeft=4;spacingRight=4;overflow=hidden;rotatable=0;points=[[0,0.5],[1,0.5]];portConstraint=eastwest;fontSize=12;" parent="h7BoS70R2w114HKqy_8a-54" vertex="1">
          <mxGeometry y="86" width="160" height="30" as="geometry" />
        </mxCell>
        <mxCell id="h7BoS70R2w114HKqy_8a-58" value="VisitingLecturer" style="swimlane;fontStyle=0;childLayout=stackLayout;horizontal=1;startSize=26;horizontalStack=0;resizeParent=1;resizeParentMax=0;resizeLast=0;collapsible=1;marginBottom=0;align=center;fontSize=14;" parent="h7BoS70R2w114HKqy_8a-1" vertex="1">
          <mxGeometry x="890" y="620" width="160" height="116" as="geometry" />
        </mxCell>
        <mxCell id="h7BoS70R2w114HKqy_8a-59" value="Item 1" style="text;strokeColor=none;fillColor=none;spacingLeft=4;spacingRight=4;overflow=hidden;rotatable=0;points=[[0,0.5],[1,0.5]];portConstraint=eastwest;fontSize=12;" parent="h7BoS70R2w114HKqy_8a-58" vertex="1">
          <mxGeometry y="26" width="160" height="30" as="geometry" />
        </mxCell>
        <mxCell id="h7BoS70R2w114HKqy_8a-60" value="Item 2" style="text;strokeColor=none;fillColor=none;spacingLeft=4;spacingRight=4;overflow=hidden;rotatable=0;points=[[0,0.5],[1,0.5]];portConstraint=eastwest;fontSize=12;" parent="h7BoS70R2w114HKqy_8a-58" vertex="1">
          <mxGeometry y="56" width="160" height="30" as="geometry" />
        </mxCell>
        <mxCell id="h7BoS70R2w114HKqy_8a-61" value="Item 3" style="text;strokeColor=none;fillColor=none;spacingLeft=4;spacingRight=4;overflow=hidden;rotatable=0;points=[[0,0.5],[1,0.5]];portConstraint=eastwest;fontSize=12;" parent="h7BoS70R2w114HKqy_8a-58" vertex="1">
          <mxGeometry y="86" width="160" height="30" as="geometry" />
        </mxCell>
        <mxCell id="h7BoS70R2w114HKqy_8a-73" value="0..1" style="text;html=1;strokeColor=none;fillColor=none;align=center;verticalAlign=middle;whiteSpace=wrap;rounded=0;" parent="h7BoS70R2w114HKqy_8a-1" vertex="1">
          <mxGeometry x="10" y="180" width="40" height="23" as="geometry" />
        </mxCell>
        <mxCell id="h7BoS70R2w114HKqy_8a-74" value="1..1" style="text;html=1;strokeColor=none;fillColor=none;align=center;verticalAlign=middle;whiteSpace=wrap;rounded=0;" parent="h7BoS70R2w114HKqy_8a-1" vertex="1">
          <mxGeometry x="538" y="665" width="40" height="23" as="geometry" />
        </mxCell>
        <mxCell id="h7BoS70R2w114HKqy_8a-77" value="leads" style="text;html=1;strokeColor=none;fillColor=none;align=center;verticalAlign=middle;whiteSpace=wrap;rounded=0;" parent="h7BoS70R2w114HKqy_8a-1" vertex="1">
          <mxGeometry x="467.75" y="480" width="56.5" height="30" as="geometry" />
        </mxCell>
        <mxCell id="h7BoS70R2w114HKqy_8a-78" value="" style="triangle;whiteSpace=wrap;html=1;fillColor=#000000;rotation=0;direction=north;" parent="h7BoS70R2w114HKqy_8a-1" vertex="1">
          <mxGeometry x="447.75" y="485" width="20" height="20" as="geometry" />
        </mxCell>
        <mxCell id="h7BoS70R2w114HKqy_8a-79" value="1..1" style="text;html=1;strokeColor=none;fillColor=none;align=center;verticalAlign=middle;whiteSpace=wrap;rounded=0;" parent="h7BoS70R2w114HKqy_8a-1" vertex="1">
          <mxGeometry x="635" y="620" width="40" height="23" as="geometry" />
        </mxCell>
        <mxCell id="h7BoS70R2w114HKqy_8a-84" value="0..*" style="text;html=1;strokeColor=none;fillColor=none;align=center;verticalAlign=middle;whiteSpace=wrap;rounded=0;" parent="h7BoS70R2w114HKqy_8a-1" vertex="1">
          <mxGeometry x="904" y="106" width="40" height="23" as="geometry" />
        </mxCell>
        <mxCell id="h7BoS70R2w114HKqy_8a-85" value="0..*" style="text;html=1;strokeColor=none;fillColor=none;align=center;verticalAlign=middle;whiteSpace=wrap;rounded=0;" parent="h7BoS70R2w114HKqy_8a-1" vertex="1">
          <mxGeometry x="944" y="173" width="40" height="23" as="geometry" />
        </mxCell>
        <mxCell id="h7BoS70R2w114HKqy_8a-86" value="Textbook" style="swimlane;fontStyle=0;childLayout=stackLayout;horizontal=1;startSize=26;horizontalStack=0;resizeParent=1;resizeParentMax=0;resizeLast=0;collapsible=1;marginBottom=0;align=center;fontSize=14;" parent="h7BoS70R2w114HKqy_8a-1" vertex="1">
          <mxGeometry x="590" y="320" width="160" height="116" as="geometry" />
        </mxCell>
        <mxCell id="h7BoS70R2w114HKqy_8a-87" value="Item 1" style="text;strokeColor=none;fillColor=none;spacingLeft=4;spacingRight=4;overflow=hidden;rotatable=0;points=[[0,0.5],[1,0.5]];portConstraint=eastwest;fontSize=12;" parent="h7BoS70R2w114HKqy_8a-86" vertex="1">
          <mxGeometry y="26" width="160" height="30" as="geometry" />
        </mxCell>
        <mxCell id="h7BoS70R2w114HKqy_8a-88" value="Item 2" style="text;strokeColor=none;fillColor=none;spacingLeft=4;spacingRight=4;overflow=hidden;rotatable=0;points=[[0,0.5],[1,0.5]];portConstraint=eastwest;fontSize=12;" parent="h7BoS70R2w114HKqy_8a-86" vertex="1">
          <mxGeometry y="56" width="160" height="30" as="geometry" />
        </mxCell>
        <mxCell id="h7BoS70R2w114HKqy_8a-89" value="Item 3" style="text;strokeColor=none;fillColor=none;spacingLeft=4;spacingRight=4;overflow=hidden;rotatable=0;points=[[0,0.5],[1,0.5]];portConstraint=eastwest;fontSize=12;" parent="h7BoS70R2w114HKqy_8a-86" vertex="1">
          <mxGeometry y="86" width="160" height="30" as="geometry" />
        </mxCell>
        <mxCell id="h7BoS70R2w114HKqy_8a-90" style="edgeStyle=orthogonalEdgeStyle;rounded=0;orthogonalLoop=1;jettySize=auto;html=1;exitX=0;exitY=0.5;exitDx=0;exitDy=0;entryX=0;entryY=0.5;entryDx=0;entryDy=0;endArrow=none;endFill=0;" parent="h7BoS70R2w114HKqy_8a-1" source="h7BoS70R2w114HKqy_8a-56" target="h7BoS70R2w114HKqy_8a-4" edge="1">
          <mxGeometry relative="1" as="geometry" />
        </mxCell>
        <mxCell id="h7BoS70R2w114HKqy_8a-91" value="manages" style="text;html=1;strokeColor=none;fillColor=none;align=center;verticalAlign=middle;whiteSpace=wrap;rounded=0;" parent="h7BoS70R2w114HKqy_8a-1" vertex="1">
          <mxGeometry x="370" y="663" width="60" height="30" as="geometry" />
        </mxCell>
        <mxCell id="h7BoS70R2w114HKqy_8a-92" value="" style="triangle;whiteSpace=wrap;html=1;fillColor=#000000;rotation=0;direction=west;" parent="h7BoS70R2w114HKqy_8a-1" vertex="1">
          <mxGeometry x="350" y="668" width="20" height="20" as="geometry" />
        </mxCell>
        <mxCell id="h7BoS70R2w114HKqy_8a-94" value="0..1" style="text;html=1;strokeColor=none;fillColor=none;align=center;verticalAlign=middle;whiteSpace=wrap;rounded=0;" parent="h7BoS70R2w114HKqy_8a-1" vertex="1">
          <mxGeometry x="520" y="246" width="40" height="23" as="geometry" />
        </mxCell>
        <mxCell id="h7BoS70R2w114HKqy_8a-100" style="edgeStyle=orthogonalEdgeStyle;rounded=0;orthogonalLoop=1;jettySize=auto;html=1;entryX=1;entryY=0.5;entryDx=0;entryDy=0;endArrow=none;endFill=0;" parent="h7BoS70R2w114HKqy_8a-1" source="h7BoS70R2w114HKqy_8a-97" target="h7BoS70R2w114HKqy_8a-8" edge="1">
          <mxGeometry relative="1" as="geometry" />
        </mxCell>
        <mxCell id="h7BoS70R2w114HKqy_8a-101" style="edgeStyle=orthogonalEdgeStyle;rounded=0;orthogonalLoop=1;jettySize=auto;html=1;entryX=0;entryY=0.5;entryDx=0;entryDy=0;endArrow=none;endFill=0;" parent="h7BoS70R2w114HKqy_8a-1" source="h7BoS70R2w114HKqy_8a-97" target="h7BoS70R2w114HKqy_8a-36" edge="1">
          <mxGeometry relative="1" as="geometry" />
        </mxCell>
        <mxCell id="h7BoS70R2w114HKqy_8a-102" style="edgeStyle=orthogonalEdgeStyle;rounded=0;orthogonalLoop=1;jettySize=auto;html=1;entryX=0.5;entryY=0;entryDx=0;entryDy=0;endArrow=none;endFill=0;" parent="h7BoS70R2w114HKqy_8a-1" source="h7BoS70R2w114HKqy_8a-97" target="h7BoS70R2w114HKqy_8a-86" edge="1">
          <mxGeometry relative="1" as="geometry" />
        </mxCell>
        <mxCell id="h7BoS70R2w114HKqy_8a-97" value="recommends" style="rhombus;whiteSpace=wrap;html=1;fillColor=none;strokeColor=default;" parent="h7BoS70R2w114HKqy_8a-1" vertex="1">
          <mxGeometry x="620" y="161" width="100" height="80" as="geometry" />
        </mxCell>
        <mxCell id="h7BoS70R2w114HKqy_8a-104" value="1..*" style="text;html=1;strokeColor=none;fillColor=none;align=center;verticalAlign=middle;whiteSpace=wrap;rounded=0;" parent="h7BoS70R2w114HKqy_8a-1" vertex="1">
          <mxGeometry x="550" y="175" width="40" height="23" as="geometry" />
        </mxCell>
        <mxCell id="h7BoS70R2w114HKqy_8a-105" value="1..*" style="text;html=1;strokeColor=none;fillColor=none;align=center;verticalAlign=middle;whiteSpace=wrap;rounded=0;" parent="h7BoS70R2w114HKqy_8a-1" vertex="1">
          <mxGeometry x="744" y="180" width="40" height="23" as="geometry" />
        </mxCell>
        <mxCell id="h7BoS70R2w114HKqy_8a-106" value="1..*" style="text;html=1;strokeColor=none;fillColor=none;align=center;verticalAlign=middle;whiteSpace=wrap;rounded=0;" parent="h7BoS70R2w114HKqy_8a-1" vertex="1">
          <mxGeometry x="675" y="293.5" width="40" height="23" as="geometry" />
        </mxCell>
        <mxCell id="nOco907rDc5-YhcnCqZA-0" value="{mandatory, or}" style="text;html=1;strokeColor=none;fillColor=none;align=center;verticalAlign=middle;whiteSpace=wrap;rounded=0;" parent="h7BoS70R2w114HKqy_8a-1" vertex="1">
          <mxGeometry x="878" y="530" width="100" height="30" as="geometry" />
        </mxCell>
      </root>
    </mxGraphModel>
  </diagram>
  <diagram id="3Uheqq1aQ6ywcHlx36DZ" name="ModelAnswer">
    <mxGraphModel dx="1422" dy="839" grid="1" gridSize="10" guides="1" tooltips="1" connect="1" arrows="1" fold="1" page="1" pageScale="1" pageWidth="850" pageHeight="1100" math="0" shadow="0">
      <root>
        <mxCell id="0" />
        <mxCell id="1" parent="0" />
        <mxCell id="Vz70w7Y6VXm0uxcAvSJO-3" value="Staff" style="swimlane;fontStyle=0;childLayout=stackLayout;horizontal=1;startSize=26;horizontalStack=0;resizeParent=1;resizeParentMax=0;resizeLast=0;collapsible=1;marginBottom=0;align=center;fontSize=14;strokeColor=default;fillColor=none;" parent="1" vertex="1">
          <mxGeometry x="110" y="79" width="160" height="116" as="geometry" />
        </mxCell>
        <mxCell id="Vz70w7Y6VXm0uxcAvSJO-4" value="Item 1" style="text;strokeColor=none;fillColor=none;spacingLeft=4;spacingRight=4;overflow=hidden;rotatable=0;points=[[0,0.5],[1,0.5]];portConstraint=eastwest;fontSize=12;" parent="Vz70w7Y6VXm0uxcAvSJO-3" vertex="1">
          <mxGeometry y="26" width="160" height="30" as="geometry" />
        </mxCell>
        <mxCell id="Vz70w7Y6VXm0uxcAvSJO-5" value="Item 2" style="text;strokeColor=none;fillColor=none;spacingLeft=4;spacingRight=4;overflow=hidden;rotatable=0;points=[[0,0.5],[1,0.5]];portConstraint=eastwest;fontSize=12;" parent="Vz70w7Y6VXm0uxcAvSJO-3" vertex="1">
          <mxGeometry y="56" width="160" height="30" as="geometry" />
        </mxCell>
        <mxCell id="Vz70w7Y6VXm0uxcAvSJO-6" value="Item 3" style="text;strokeColor=none;fillColor=none;spacingLeft=4;spacingRight=4;overflow=hidden;rotatable=0;points=[[0,0.5],[1,0.5]];portConstraint=eastwest;fontSize=12;" parent="Vz70w7Y6VXm0uxcAvSJO-3" vertex="1">
          <mxGeometry y="86" width="160" height="30" as="geometry" />
        </mxCell>
        <mxCell id="Vz70w7Y6VXm0uxcAvSJO-26" style="edgeStyle=orthogonalEdgeStyle;rounded=0;orthogonalLoop=1;jettySize=auto;html=1;exitX=0.5;exitY=0;exitDx=0;exitDy=0;entryX=-0.006;entryY=0.733;entryDx=0;entryDy=0;entryPerimeter=0;endArrow=none;endFill=0;" parent="Vz70w7Y6VXm0uxcAvSJO-3" source="Vz70w7Y6VXm0uxcAvSJO-3" target="Vz70w7Y6VXm0uxcAvSJO-4" edge="1">
          <mxGeometry relative="1" as="geometry">
            <Array as="points">
              <mxPoint x="80" y="-39" />
              <mxPoint x="-30" y="-39" />
              <mxPoint x="-30" y="48" />
            </Array>
          </mxGeometry>
        </mxCell>
        <mxCell id="Vz70w7Y6VXm0uxcAvSJO-7" value="Textbook" style="swimlane;fontStyle=0;childLayout=stackLayout;horizontal=1;startSize=26;horizontalStack=0;resizeParent=1;resizeParentMax=0;resizeLast=0;collapsible=1;marginBottom=0;align=center;fontSize=14;strokeColor=default;fillColor=none;" parent="1" vertex="1">
          <mxGeometry x="530" y="79" width="160" height="116" as="geometry" />
        </mxCell>
        <mxCell id="Vz70w7Y6VXm0uxcAvSJO-8" value="Item 1" style="text;strokeColor=none;fillColor=none;spacingLeft=4;spacingRight=4;overflow=hidden;rotatable=0;points=[[0,0.5],[1,0.5]];portConstraint=eastwest;fontSize=12;" parent="Vz70w7Y6VXm0uxcAvSJO-7" vertex="1">
          <mxGeometry y="26" width="160" height="30" as="geometry" />
        </mxCell>
        <mxCell id="Vz70w7Y6VXm0uxcAvSJO-9" value="Item 2" style="text;strokeColor=none;fillColor=none;spacingLeft=4;spacingRight=4;overflow=hidden;rotatable=0;points=[[0,0.5],[1,0.5]];portConstraint=eastwest;fontSize=12;" parent="Vz70w7Y6VXm0uxcAvSJO-7" vertex="1">
          <mxGeometry y="56" width="160" height="30" as="geometry" />
        </mxCell>
        <mxCell id="Vz70w7Y6VXm0uxcAvSJO-10" value="Item 3" style="text;strokeColor=none;fillColor=none;spacingLeft=4;spacingRight=4;overflow=hidden;rotatable=0;points=[[0,0.5],[1,0.5]];portConstraint=eastwest;fontSize=12;" parent="Vz70w7Y6VXm0uxcAvSJO-7" vertex="1">
          <mxGeometry y="86" width="160" height="30" as="geometry" />
        </mxCell>
        <mxCell id="YInIirKZCaE0apMqZu6H-42" style="edgeStyle=orthogonalEdgeStyle;rounded=0;orthogonalLoop=1;jettySize=auto;html=1;entryX=0.75;entryY=0;entryDx=0;entryDy=0;endArrow=none;endFill=0;exitX=0.488;exitY=1.067;exitDx=0;exitDy=0;exitPerimeter=0;" parent="1" source="Vz70w7Y6VXm0uxcAvSJO-14" target="YInIirKZCaE0apMqZu6H-28" edge="1">
          <mxGeometry relative="1" as="geometry">
            <Array as="points">
              <mxPoint x="398" y="580" />
              <mxPoint x="220" y="580" />
            </Array>
          </mxGeometry>
        </mxCell>
        <mxCell id="Vz70w7Y6VXm0uxcAvSJO-11" value="Module" style="swimlane;fontStyle=0;childLayout=stackLayout;horizontal=1;startSize=26;horizontalStack=0;resizeParent=1;resizeParentMax=0;resizeLast=0;collapsible=1;marginBottom=0;align=center;fontSize=14;strokeColor=default;fillColor=none;" parent="1" vertex="1">
          <mxGeometry x="320" y="434" width="160" height="116" as="geometry" />
        </mxCell>
        <mxCell id="Vz70w7Y6VXm0uxcAvSJO-12" value="Item 1" style="text;strokeColor=none;fillColor=none;spacingLeft=4;spacingRight=4;overflow=hidden;rotatable=0;points=[[0,0.5],[1,0.5]];portConstraint=eastwest;fontSize=12;" parent="Vz70w7Y6VXm0uxcAvSJO-11" vertex="1">
          <mxGeometry y="26" width="160" height="30" as="geometry" />
        </mxCell>
        <mxCell id="Vz70w7Y6VXm0uxcAvSJO-13" value="Item 2" style="text;strokeColor=none;fillColor=none;spacingLeft=4;spacingRight=4;overflow=hidden;rotatable=0;points=[[0,0.5],[1,0.5]];portConstraint=eastwest;fontSize=12;" parent="Vz70w7Y6VXm0uxcAvSJO-11" vertex="1">
          <mxGeometry y="56" width="160" height="30" as="geometry" />
        </mxCell>
        <mxCell id="Vz70w7Y6VXm0uxcAvSJO-14" value="Item 3" style="text;strokeColor=none;fillColor=none;spacingLeft=4;spacingRight=4;overflow=hidden;rotatable=0;points=[[0,0.5],[1,0.5]];portConstraint=eastwest;fontSize=12;" parent="Vz70w7Y6VXm0uxcAvSJO-11" vertex="1">
          <mxGeometry y="86" width="160" height="30" as="geometry" />
        </mxCell>
        <mxCell id="Vz70w7Y6VXm0uxcAvSJO-16" style="edgeStyle=orthogonalEdgeStyle;rounded=0;orthogonalLoop=1;jettySize=auto;html=1;exitX=0;exitY=0.5;exitDx=0;exitDy=0;entryX=1;entryY=0.5;entryDx=0;entryDy=0;endArrow=none;endFill=0;" parent="1" source="Vz70w7Y6VXm0uxcAvSJO-15" target="Vz70w7Y6VXm0uxcAvSJO-5" edge="1">
          <mxGeometry relative="1" as="geometry" />
        </mxCell>
        <mxCell id="Vz70w7Y6VXm0uxcAvSJO-17" style="edgeStyle=orthogonalEdgeStyle;rounded=0;orthogonalLoop=1;jettySize=auto;html=1;exitX=1;exitY=0.5;exitDx=0;exitDy=0;entryX=0;entryY=0.5;entryDx=0;entryDy=0;endArrow=none;endFill=0;" parent="1" source="Vz70w7Y6VXm0uxcAvSJO-15" target="Vz70w7Y6VXm0uxcAvSJO-9" edge="1">
          <mxGeometry relative="1" as="geometry" />
        </mxCell>
        <mxCell id="Vz70w7Y6VXm0uxcAvSJO-18" style="edgeStyle=orthogonalEdgeStyle;rounded=0;orthogonalLoop=1;jettySize=auto;html=1;exitX=0.5;exitY=1;exitDx=0;exitDy=0;endArrow=none;endFill=0;" parent="1" source="Vz70w7Y6VXm0uxcAvSJO-15" target="Vz70w7Y6VXm0uxcAvSJO-11" edge="1">
          <mxGeometry relative="1" as="geometry" />
        </mxCell>
        <mxCell id="Vz70w7Y6VXm0uxcAvSJO-15" value="recommends" style="rhombus;whiteSpace=wrap;html=1;strokeColor=default;fillColor=none;" parent="1" vertex="1">
          <mxGeometry x="355" y="118" width="90" height="64" as="geometry" />
        </mxCell>
        <mxCell id="Vz70w7Y6VXm0uxcAvSJO-19" value="1..*" style="text;html=1;strokeColor=none;fillColor=none;align=center;verticalAlign=middle;whiteSpace=wrap;rounded=0;" parent="1" vertex="1">
          <mxGeometry x="470" y="118" width="60" height="30" as="geometry" />
        </mxCell>
        <mxCell id="Vz70w7Y6VXm0uxcAvSJO-24" value="1..*" style="text;html=1;strokeColor=none;fillColor=none;align=center;verticalAlign=middle;whiteSpace=wrap;rounded=0;" parent="1" vertex="1">
          <mxGeometry x="270" y="122" width="60" height="30" as="geometry" />
        </mxCell>
        <mxCell id="Vz70w7Y6VXm0uxcAvSJO-25" value="1..*" style="text;html=1;strokeColor=none;fillColor=none;align=center;verticalAlign=middle;whiteSpace=wrap;rounded=0;" parent="1" vertex="1">
          <mxGeometry x="400" y="404" width="60" height="30" as="geometry" />
        </mxCell>
        <mxCell id="Vz70w7Y6VXm0uxcAvSJO-27" value="mentors" style="text;html=1;strokeColor=none;fillColor=none;align=center;verticalAlign=middle;whiteSpace=wrap;rounded=0;" parent="1" vertex="1">
          <mxGeometry x="100" y="10" width="60" height="30" as="geometry" />
        </mxCell>
        <mxCell id="Vz70w7Y6VXm0uxcAvSJO-28" value="0..1" style="text;html=1;strokeColor=none;fillColor=none;align=center;verticalAlign=middle;whiteSpace=wrap;rounded=0;" parent="1" vertex="1">
          <mxGeometry x="130" y="49" width="60" height="30" as="geometry" />
        </mxCell>
        <mxCell id="Vz70w7Y6VXm0uxcAvSJO-29" value="0..1" style="text;html=1;strokeColor=none;fillColor=none;align=center;verticalAlign=middle;whiteSpace=wrap;rounded=0;" parent="1" vertex="1">
          <mxGeometry x="60" y="100" width="60" height="30" as="geometry" />
        </mxCell>
        <mxCell id="YInIirKZCaE0apMqZu6H-1" value="" style="triangle;whiteSpace=wrap;html=1;fillColor=#000000;rotation=0;direction=west;" parent="1" vertex="1">
          <mxGeometry x="80" y="15" width="20" height="20" as="geometry" />
        </mxCell>
        <mxCell id="YInIirKZCaE0apMqZu6H-12" style="edgeStyle=orthogonalEdgeStyle;rounded=0;orthogonalLoop=1;jettySize=auto;html=1;exitX=0.5;exitY=0;exitDx=0;exitDy=0;entryX=0.519;entryY=1.033;entryDx=0;entryDy=0;entryPerimeter=0;endArrow=none;endFill=0;" parent="1" source="YInIirKZCaE0apMqZu6H-2" target="Vz70w7Y6VXm0uxcAvSJO-6" edge="1">
          <mxGeometry relative="1" as="geometry">
            <Array as="points">
              <mxPoint x="120" y="242" />
              <mxPoint x="193" y="242" />
            </Array>
          </mxGeometry>
        </mxCell>
        <mxCell id="YInIirKZCaE0apMqZu6H-2" value="V_Lecturer" style="swimlane;fontStyle=0;childLayout=stackLayout;horizontal=1;startSize=26;horizontalStack=0;resizeParent=1;resizeParentMax=0;resizeLast=0;collapsible=1;marginBottom=0;align=center;fontSize=14;strokeColor=default;fillColor=none;" parent="1" vertex="1">
          <mxGeometry x="40" y="288" width="160" height="116" as="geometry" />
        </mxCell>
        <mxCell id="YInIirKZCaE0apMqZu6H-3" value="Item 1" style="text;strokeColor=none;fillColor=none;spacingLeft=4;spacingRight=4;overflow=hidden;rotatable=0;points=[[0,0.5],[1,0.5]];portConstraint=eastwest;fontSize=12;" parent="YInIirKZCaE0apMqZu6H-2" vertex="1">
          <mxGeometry y="26" width="160" height="30" as="geometry" />
        </mxCell>
        <mxCell id="YInIirKZCaE0apMqZu6H-4" value="Item 2" style="text;strokeColor=none;fillColor=none;spacingLeft=4;spacingRight=4;overflow=hidden;rotatable=0;points=[[0,0.5],[1,0.5]];portConstraint=eastwest;fontSize=12;" parent="YInIirKZCaE0apMqZu6H-2" vertex="1">
          <mxGeometry y="56" width="160" height="30" as="geometry" />
        </mxCell>
        <mxCell id="YInIirKZCaE0apMqZu6H-5" value="Item 3" style="text;strokeColor=none;fillColor=none;spacingLeft=4;spacingRight=4;overflow=hidden;rotatable=0;points=[[0,0.5],[1,0.5]];portConstraint=eastwest;fontSize=12;" parent="YInIirKZCaE0apMqZu6H-2" vertex="1">
          <mxGeometry y="86" width="160" height="30" as="geometry" />
        </mxCell>
        <mxCell id="YInIirKZCaE0apMqZu6H-14" style="edgeStyle=orthogonalEdgeStyle;rounded=0;orthogonalLoop=1;jettySize=auto;html=1;entryX=0.519;entryY=0.967;entryDx=0;entryDy=0;entryPerimeter=0;endArrow=classic;endFill=1;" parent="1" source="YInIirKZCaE0apMqZu6H-7" target="Vz70w7Y6VXm0uxcAvSJO-6" edge="1">
          <mxGeometry relative="1" as="geometry" />
        </mxCell>
        <mxCell id="YInIirKZCaE0apMqZu6H-23" style="edgeStyle=orthogonalEdgeStyle;rounded=0;orthogonalLoop=1;jettySize=auto;html=1;entryX=-0.006;entryY=0.767;entryDx=0;entryDy=0;entryPerimeter=0;endArrow=none;endFill=0;" parent="1" source="YInIirKZCaE0apMqZu6H-7" target="Vz70w7Y6VXm0uxcAvSJO-13" edge="1">
          <mxGeometry relative="1" as="geometry" />
        </mxCell>
        <mxCell id="YInIirKZCaE0apMqZu6H-7" value="FT_Lecturer" style="swimlane;fontStyle=0;childLayout=stackLayout;horizontal=1;startSize=26;horizontalStack=0;resizeParent=1;resizeParentMax=0;resizeLast=0;collapsible=1;marginBottom=0;align=center;fontSize=14;strokeColor=default;fillColor=none;" parent="1" vertex="1">
          <mxGeometry x="210" y="288" width="160" height="116" as="geometry" />
        </mxCell>
        <mxCell id="YInIirKZCaE0apMqZu6H-8" value="Item 1" style="text;strokeColor=none;fillColor=none;spacingLeft=4;spacingRight=4;overflow=hidden;rotatable=0;points=[[0,0.5],[1,0.5]];portConstraint=eastwest;fontSize=12;" parent="YInIirKZCaE0apMqZu6H-7" vertex="1">
          <mxGeometry y="26" width="160" height="30" as="geometry" />
        </mxCell>
        <mxCell id="YInIirKZCaE0apMqZu6H-9" value="Item 2" style="text;strokeColor=none;fillColor=none;spacingLeft=4;spacingRight=4;overflow=hidden;rotatable=0;points=[[0,0.5],[1,0.5]];portConstraint=eastwest;fontSize=12;" parent="YInIirKZCaE0apMqZu6H-7" vertex="1">
          <mxGeometry y="56" width="160" height="30" as="geometry" />
        </mxCell>
        <mxCell id="YInIirKZCaE0apMqZu6H-10" value="Item 3" style="text;strokeColor=none;fillColor=none;spacingLeft=4;spacingRight=4;overflow=hidden;rotatable=0;points=[[0,0.5],[1,0.5]];portConstraint=eastwest;fontSize=12;" parent="YInIirKZCaE0apMqZu6H-7" vertex="1">
          <mxGeometry y="86" width="160" height="30" as="geometry" />
        </mxCell>
        <mxCell id="YInIirKZCaE0apMqZu6H-15" value="{optional, or}" style="text;html=1;strokeColor=none;fillColor=none;align=center;verticalAlign=middle;whiteSpace=wrap;rounded=0;" parent="1" vertex="1">
          <mxGeometry x="100" y="210" width="80" height="30" as="geometry" />
        </mxCell>
        <mxCell id="YInIirKZCaE0apMqZu6H-16" style="edgeStyle=orthogonalEdgeStyle;rounded=0;orthogonalLoop=1;jettySize=auto;html=1;entryX=0.369;entryY=0.017;entryDx=0;entryDy=0;entryPerimeter=0;endArrow=none;endFill=0;" parent="1" source="Vz70w7Y6VXm0uxcAvSJO-6" target="Vz70w7Y6VXm0uxcAvSJO-11" edge="1">
          <mxGeometry relative="1" as="geometry" />
        </mxCell>
        <mxCell id="YInIirKZCaE0apMqZu6H-17" value="teaches" style="text;html=1;strokeColor=none;fillColor=none;align=center;verticalAlign=middle;whiteSpace=wrap;rounded=0;" parent="1" vertex="1">
          <mxGeometry x="270" y="152" width="60" height="30" as="geometry" />
        </mxCell>
        <mxCell id="YInIirKZCaE0apMqZu6H-18" value="" style="triangle;whiteSpace=wrap;html=1;fillColor=#000000;rotation=0;direction=east;" parent="1" vertex="1">
          <mxGeometry x="330" y="157" width="20" height="20" as="geometry" />
        </mxCell>
        <mxCell id="YInIirKZCaE0apMqZu6H-21" value="1..*" style="text;html=1;strokeColor=none;fillColor=none;align=center;verticalAlign=middle;whiteSpace=wrap;rounded=0;" parent="1" vertex="1">
          <mxGeometry x="260" y="180" width="60" height="30" as="geometry" />
        </mxCell>
        <mxCell id="YInIirKZCaE0apMqZu6H-22" value="0..*" style="text;html=1;strokeColor=none;fillColor=none;align=center;verticalAlign=middle;whiteSpace=wrap;rounded=0;" parent="1" vertex="1">
          <mxGeometry x="320" y="410" width="60" height="30" as="geometry" />
        </mxCell>
        <mxCell id="YInIirKZCaE0apMqZu6H-24" value="leads" style="text;html=1;strokeColor=none;fillColor=none;align=center;verticalAlign=middle;whiteSpace=wrap;rounded=0;" parent="1" vertex="1">
          <mxGeometry x="250" y="450" width="40" height="30" as="geometry" />
        </mxCell>
        <mxCell id="YInIirKZCaE0apMqZu6H-25" value="" style="triangle;whiteSpace=wrap;html=1;fillColor=#000000;rotation=0;direction=south;" parent="1" vertex="1">
          <mxGeometry x="260" y="482" width="20" height="20" as="geometry" />
        </mxCell>
        <mxCell id="YInIirKZCaE0apMqZu6H-26" value="1..1" style="text;html=1;strokeColor=none;fillColor=none;align=center;verticalAlign=middle;whiteSpace=wrap;rounded=0;" parent="1" vertex="1">
          <mxGeometry x="260" y="404" width="30" height="30" as="geometry" />
        </mxCell>
        <mxCell id="YInIirKZCaE0apMqZu6H-27" value="0..*" style="text;html=1;strokeColor=none;fillColor=none;align=center;verticalAlign=middle;whiteSpace=wrap;rounded=0;" parent="1" vertex="1">
          <mxGeometry x="260" y="514" width="60" height="30" as="geometry" />
        </mxCell>
        <mxCell id="YInIirKZCaE0apMqZu6H-37" style="edgeStyle=orthogonalEdgeStyle;rounded=0;orthogonalLoop=1;jettySize=auto;html=1;exitX=0.5;exitY=0;exitDx=0;exitDy=0;endArrow=none;endFill=0;" parent="1" source="YInIirKZCaE0apMqZu6H-28" edge="1">
          <mxGeometry relative="1" as="geometry">
            <mxPoint x="230" y="410" as="targetPoint" />
          </mxGeometry>
        </mxCell>
        <mxCell id="YInIirKZCaE0apMqZu6H-28" value="Course" style="swimlane;fontStyle=0;childLayout=stackLayout;horizontal=1;startSize=26;horizontalStack=0;resizeParent=1;resizeParentMax=0;resizeLast=0;collapsible=1;marginBottom=0;align=center;fontSize=14;strokeColor=default;fillColor=none;" parent="1" vertex="1">
          <mxGeometry x="100" y="640" width="160" height="116" as="geometry" />
        </mxCell>
        <mxCell id="YInIirKZCaE0apMqZu6H-29" value="Item 1" style="text;strokeColor=none;fillColor=none;spacingLeft=4;spacingRight=4;overflow=hidden;rotatable=0;points=[[0,0.5],[1,0.5]];portConstraint=eastwest;fontSize=12;" parent="YInIirKZCaE0apMqZu6H-28" vertex="1">
          <mxGeometry y="26" width="160" height="30" as="geometry" />
        </mxCell>
        <mxCell id="YInIirKZCaE0apMqZu6H-30" value="Item 2" style="text;strokeColor=none;fillColor=none;spacingLeft=4;spacingRight=4;overflow=hidden;rotatable=0;points=[[0,0.5],[1,0.5]];portConstraint=eastwest;fontSize=12;" parent="YInIirKZCaE0apMqZu6H-28" vertex="1">
          <mxGeometry y="56" width="160" height="30" as="geometry" />
        </mxCell>
        <mxCell id="YInIirKZCaE0apMqZu6H-31" value="Item 3" style="text;strokeColor=none;fillColor=none;spacingLeft=4;spacingRight=4;overflow=hidden;rotatable=0;points=[[0,0.5],[1,0.5]];portConstraint=eastwest;fontSize=12;" parent="YInIirKZCaE0apMqZu6H-28" vertex="1">
          <mxGeometry y="86" width="160" height="30" as="geometry" />
        </mxCell>
        <mxCell id="YInIirKZCaE0apMqZu6H-32" value="Student" style="swimlane;fontStyle=0;childLayout=stackLayout;horizontal=1;startSize=26;horizontalStack=0;resizeParent=1;resizeParentMax=0;resizeLast=0;collapsible=1;marginBottom=0;align=center;fontSize=14;strokeColor=default;fillColor=none;" parent="1" vertex="1">
          <mxGeometry x="550" y="640" width="160" height="116" as="geometry" />
        </mxCell>
        <mxCell id="YInIirKZCaE0apMqZu6H-33" value="Item 1" style="text;strokeColor=none;fillColor=none;spacingLeft=4;spacingRight=4;overflow=hidden;rotatable=0;points=[[0,0.5],[1,0.5]];portConstraint=eastwest;fontSize=12;" parent="YInIirKZCaE0apMqZu6H-32" vertex="1">
          <mxGeometry y="26" width="160" height="30" as="geometry" />
        </mxCell>
        <mxCell id="YInIirKZCaE0apMqZu6H-34" value="Item 2" style="text;strokeColor=none;fillColor=none;spacingLeft=4;spacingRight=4;overflow=hidden;rotatable=0;points=[[0,0.5],[1,0.5]];portConstraint=eastwest;fontSize=12;" parent="YInIirKZCaE0apMqZu6H-32" vertex="1">
          <mxGeometry y="56" width="160" height="30" as="geometry" />
        </mxCell>
        <mxCell id="YInIirKZCaE0apMqZu6H-35" value="Item 3" style="text;strokeColor=none;fillColor=none;spacingLeft=4;spacingRight=4;overflow=hidden;rotatable=0;points=[[0,0.5],[1,0.5]];portConstraint=eastwest;fontSize=12;" parent="YInIirKZCaE0apMqZu6H-32" vertex="1">
          <mxGeometry y="86" width="160" height="30" as="geometry" />
        </mxCell>
        <mxCell id="YInIirKZCaE0apMqZu6H-38" value="manages" style="text;html=1;strokeColor=none;fillColor=none;align=center;verticalAlign=middle;whiteSpace=wrap;rounded=0;" parent="1" vertex="1">
          <mxGeometry x="127" y="524" width="40" height="30" as="geometry" />
        </mxCell>
        <mxCell id="YInIirKZCaE0apMqZu6H-39" value="" style="triangle;whiteSpace=wrap;html=1;fillColor=#000000;rotation=0;direction=south;" parent="1" vertex="1">
          <mxGeometry x="137" y="554" width="20" height="22" as="geometry" />
        </mxCell>
        <mxCell id="YInIirKZCaE0apMqZu6H-40" value="1..1" style="text;html=1;strokeColor=none;fillColor=none;align=center;verticalAlign=middle;whiteSpace=wrap;rounded=0;" parent="1" vertex="1">
          <mxGeometry x="200" y="410" width="30" height="30" as="geometry" />
        </mxCell>
        <mxCell id="YInIirKZCaE0apMqZu6H-41" value="0..1" style="text;html=1;strokeColor=none;fillColor=none;align=center;verticalAlign=middle;whiteSpace=wrap;rounded=0;" parent="1" vertex="1">
          <mxGeometry x="117" y="610" width="60" height="30" as="geometry" />
        </mxCell>
        <mxCell id="YInIirKZCaE0apMqZu6H-43" value="consists of" style="text;html=1;strokeColor=none;fillColor=none;align=center;verticalAlign=middle;whiteSpace=wrap;rounded=0;" parent="1" vertex="1">
          <mxGeometry x="254" y="554" width="60" height="30" as="geometry" />
        </mxCell>
        <mxCell id="YInIirKZCaE0apMqZu6H-44" value="" style="triangle;whiteSpace=wrap;html=1;fillColor=#000000;rotation=0;direction=east;" parent="1" vertex="1">
          <mxGeometry x="317" y="559" width="20" height="20" as="geometry" />
        </mxCell>
        <mxCell id="YInIirKZCaE0apMqZu6H-48" value="1..*" style="text;html=1;strokeColor=none;fillColor=none;align=center;verticalAlign=middle;whiteSpace=wrap;rounded=0;" parent="1" vertex="1">
          <mxGeometry x="410" y="550" width="60" height="30" as="geometry" />
        </mxCell>
        <mxCell id="YInIirKZCaE0apMqZu6H-49" value="0..1" style="text;html=1;strokeColor=none;fillColor=none;align=center;verticalAlign=middle;whiteSpace=wrap;rounded=0;" parent="1" vertex="1">
          <mxGeometry x="220" y="610" width="40" height="30" as="geometry" />
        </mxCell>
        <mxCell id="YInIirKZCaE0apMqZu6H-50" style="edgeStyle=orthogonalEdgeStyle;rounded=0;orthogonalLoop=1;jettySize=auto;html=1;entryX=0;entryY=0.5;entryDx=0;entryDy=0;endArrow=none;endFill=0;" parent="1" source="YInIirKZCaE0apMqZu6H-30" target="YInIirKZCaE0apMqZu6H-34" edge="1">
          <mxGeometry relative="1" as="geometry" />
        </mxCell>
        <mxCell id="YInIirKZCaE0apMqZu6H-51" value="registers" style="text;html=1;strokeColor=none;fillColor=none;align=center;verticalAlign=middle;whiteSpace=wrap;rounded=0;" parent="1" vertex="1">
          <mxGeometry x="390" y="683" width="60" height="30" as="geometry" />
        </mxCell>
        <mxCell id="YInIirKZCaE0apMqZu6H-52" value="" style="triangle;whiteSpace=wrap;html=1;fillColor=#000000;rotation=0;direction=west;" parent="1" vertex="1">
          <mxGeometry x="370" y="688" width="20" height="20" as="geometry" />
        </mxCell>
        <mxCell id="YInIirKZCaE0apMqZu6H-53" value="1..*" style="text;html=1;strokeColor=none;fillColor=none;align=center;verticalAlign=middle;whiteSpace=wrap;rounded=0;" parent="1" vertex="1">
          <mxGeometry x="490" y="713" width="60" height="30" as="geometry" />
        </mxCell>
        <mxCell id="YInIirKZCaE0apMqZu6H-54" value="1..*" style="text;html=1;strokeColor=none;fillColor=none;align=center;verticalAlign=middle;whiteSpace=wrap;rounded=0;" parent="1" vertex="1">
          <mxGeometry x="260" y="713" width="60" height="30" as="geometry" />
        </mxCell>
        <mxCell id="YInIirKZCaE0apMqZu6H-55" style="edgeStyle=orthogonalEdgeStyle;rounded=0;orthogonalLoop=1;jettySize=auto;html=1;entryX=0.5;entryY=0;entryDx=0;entryDy=0;endArrow=none;endFill=0;" parent="1" source="Vz70w7Y6VXm0uxcAvSJO-13" target="YInIirKZCaE0apMqZu6H-32" edge="1">
          <mxGeometry relative="1" as="geometry" />
        </mxCell>
        <mxCell id="YInIirKZCaE0apMqZu6H-56" value="takes" style="text;html=1;strokeColor=none;fillColor=none;align=center;verticalAlign=middle;whiteSpace=wrap;rounded=0;" parent="1" vertex="1">
          <mxGeometry x="560" y="472" width="60" height="30" as="geometry" />
        </mxCell>
        <mxCell id="YInIirKZCaE0apMqZu6H-57" value="" style="triangle;whiteSpace=wrap;html=1;fillColor=#000000;rotation=0;direction=west;" parent="1" vertex="1">
          <mxGeometry x="540" y="477" width="20" height="20" as="geometry" />
        </mxCell>
        <mxCell id="YInIirKZCaE0apMqZu6H-58" value="1..*" style="text;html=1;strokeColor=none;fillColor=none;align=center;verticalAlign=middle;whiteSpace=wrap;rounded=0;" parent="1" vertex="1">
          <mxGeometry x="630" y="610" width="60" height="30" as="geometry" />
        </mxCell>
        <mxCell id="YInIirKZCaE0apMqZu6H-59" value="1..*" style="text;html=1;strokeColor=none;fillColor=none;align=center;verticalAlign=middle;whiteSpace=wrap;rounded=0;" parent="1" vertex="1">
          <mxGeometry x="480" y="477" width="60" height="30" as="geometry" />
        </mxCell>
      </root>
    </mxGraphModel>
  </diagram>
  <diagram id="ohtVmtb39rQ6byBgOS9Q" name="Re-Do">
    <mxGraphModel dx="1422" dy="831" grid="1" gridSize="10" guides="1" tooltips="1" connect="1" arrows="1" fold="1" page="1" pageScale="1" pageWidth="850" pageHeight="1100" math="0" shadow="0">
      <root>
        <mxCell id="hVl5hp2g6du6XOVBprYH-0" />
        <mxCell id="hVl5hp2g6du6XOVBprYH-1" parent="hVl5hp2g6du6XOVBprYH-0" />
        <mxCell id="hVl5hp2g6du6XOVBprYH-2" value="Textbook" style="swimlane;fontStyle=0;childLayout=stackLayout;horizontal=1;startSize=26;horizontalStack=0;resizeParent=1;resizeParentMax=0;resizeLast=0;collapsible=1;marginBottom=0;align=center;fontSize=14;fillColor=none;" vertex="1" parent="hVl5hp2g6du6XOVBprYH-1">
          <mxGeometry x="40" y="40" width="160" height="116" as="geometry" />
        </mxCell>
        <mxCell id="hVl5hp2g6du6XOVBprYH-3" value="Item 1" style="text;strokeColor=none;fillColor=none;spacingLeft=4;spacingRight=4;overflow=hidden;rotatable=0;points=[[0,0.5],[1,0.5]];portConstraint=eastwest;fontSize=12;" vertex="1" parent="hVl5hp2g6du6XOVBprYH-2">
          <mxGeometry y="26" width="160" height="30" as="geometry" />
        </mxCell>
        <mxCell id="hVl5hp2g6du6XOVBprYH-4" value="Item 2" style="text;strokeColor=none;fillColor=none;spacingLeft=4;spacingRight=4;overflow=hidden;rotatable=0;points=[[0,0.5],[1,0.5]];portConstraint=eastwest;fontSize=12;" vertex="1" parent="hVl5hp2g6du6XOVBprYH-2">
          <mxGeometry y="56" width="160" height="30" as="geometry" />
        </mxCell>
        <mxCell id="hVl5hp2g6du6XOVBprYH-5" value="Item 3" style="text;strokeColor=none;fillColor=none;spacingLeft=4;spacingRight=4;overflow=hidden;rotatable=0;points=[[0,0.5],[1,0.5]];portConstraint=eastwest;fontSize=12;" vertex="1" parent="hVl5hp2g6du6XOVBprYH-2">
          <mxGeometry y="86" width="160" height="30" as="geometry" />
        </mxCell>
        <mxCell id="hVl5hp2g6du6XOVBprYH-6" value="Lecturer" style="swimlane;fontStyle=0;childLayout=stackLayout;horizontal=1;startSize=26;horizontalStack=0;resizeParent=1;resizeParentMax=0;resizeLast=0;collapsible=1;marginBottom=0;align=center;fontSize=14;fillColor=none;" vertex="1" parent="hVl5hp2g6du6XOVBprYH-1">
          <mxGeometry x="530" y="40" width="160" height="116" as="geometry" />
        </mxCell>
        <mxCell id="hVl5hp2g6du6XOVBprYH-7" value="Item 1" style="text;strokeColor=none;fillColor=none;spacingLeft=4;spacingRight=4;overflow=hidden;rotatable=0;points=[[0,0.5],[1,0.5]];portConstraint=eastwest;fontSize=12;" vertex="1" parent="hVl5hp2g6du6XOVBprYH-6">
          <mxGeometry y="26" width="160" height="30" as="geometry" />
        </mxCell>
        <mxCell id="hVl5hp2g6du6XOVBprYH-8" value="Item 2" style="text;strokeColor=none;fillColor=none;spacingLeft=4;spacingRight=4;overflow=hidden;rotatable=0;points=[[0,0.5],[1,0.5]];portConstraint=eastwest;fontSize=12;" vertex="1" parent="hVl5hp2g6du6XOVBprYH-6">
          <mxGeometry y="56" width="160" height="30" as="geometry" />
        </mxCell>
        <mxCell id="hVl5hp2g6du6XOVBprYH-9" value="Item 3" style="text;strokeColor=none;fillColor=none;spacingLeft=4;spacingRight=4;overflow=hidden;rotatable=0;points=[[0,0.5],[1,0.5]];portConstraint=eastwest;fontSize=12;" vertex="1" parent="hVl5hp2g6du6XOVBprYH-6">
          <mxGeometry y="86" width="160" height="30" as="geometry" />
        </mxCell>
        <mxCell id="hVl5hp2g6du6XOVBprYH-56" style="edgeStyle=orthogonalEdgeStyle;rounded=0;orthogonalLoop=1;jettySize=auto;html=1;exitX=0.75;exitY=0;exitDx=0;exitDy=0;endArrow=none;endFill=0;" edge="1" parent="hVl5hp2g6du6XOVBprYH-6" source="hVl5hp2g6du6XOVBprYH-6" target="hVl5hp2g6du6XOVBprYH-8">
          <mxGeometry relative="1" as="geometry">
            <Array as="points">
              <mxPoint x="120" y="-30" />
              <mxPoint x="210" y="-30" />
              <mxPoint x="210" y="71" />
            </Array>
          </mxGeometry>
        </mxCell>
        <mxCell id="hVl5hp2g6du6XOVBprYH-10" value="Module" style="swimlane;fontStyle=0;childLayout=stackLayout;horizontal=1;startSize=26;horizontalStack=0;resizeParent=1;resizeParentMax=0;resizeLast=0;collapsible=1;marginBottom=0;align=center;fontSize=14;fillColor=none;" vertex="1" parent="hVl5hp2g6du6XOVBprYH-1">
          <mxGeometry x="290" y="280" width="160" height="116" as="geometry" />
        </mxCell>
        <mxCell id="hVl5hp2g6du6XOVBprYH-11" value="Item 1" style="text;strokeColor=none;fillColor=none;spacingLeft=4;spacingRight=4;overflow=hidden;rotatable=0;points=[[0,0.5],[1,0.5]];portConstraint=eastwest;fontSize=12;" vertex="1" parent="hVl5hp2g6du6XOVBprYH-10">
          <mxGeometry y="26" width="160" height="30" as="geometry" />
        </mxCell>
        <mxCell id="hVl5hp2g6du6XOVBprYH-12" value="Item 2" style="text;strokeColor=none;fillColor=none;spacingLeft=4;spacingRight=4;overflow=hidden;rotatable=0;points=[[0,0.5],[1,0.5]];portConstraint=eastwest;fontSize=12;" vertex="1" parent="hVl5hp2g6du6XOVBprYH-10">
          <mxGeometry y="56" width="160" height="30" as="geometry" />
        </mxCell>
        <mxCell id="hVl5hp2g6du6XOVBprYH-13" value="Item 3" style="text;strokeColor=none;fillColor=none;spacingLeft=4;spacingRight=4;overflow=hidden;rotatable=0;points=[[0,0.5],[1,0.5]];portConstraint=eastwest;fontSize=12;" vertex="1" parent="hVl5hp2g6du6XOVBprYH-10">
          <mxGeometry y="86" width="160" height="30" as="geometry" />
        </mxCell>
        <mxCell id="hVl5hp2g6du6XOVBprYH-15" style="edgeStyle=orthogonalEdgeStyle;rounded=0;orthogonalLoop=1;jettySize=auto;html=1;entryX=1;entryY=0.5;entryDx=0;entryDy=0;endArrow=none;endFill=0;" edge="1" parent="hVl5hp2g6du6XOVBprYH-1" source="hVl5hp2g6du6XOVBprYH-14" target="hVl5hp2g6du6XOVBprYH-4">
          <mxGeometry relative="1" as="geometry" />
        </mxCell>
        <mxCell id="hVl5hp2g6du6XOVBprYH-16" style="edgeStyle=orthogonalEdgeStyle;rounded=0;orthogonalLoop=1;jettySize=auto;html=1;endArrow=none;endFill=0;" edge="1" parent="hVl5hp2g6du6XOVBprYH-1" source="hVl5hp2g6du6XOVBprYH-14" target="hVl5hp2g6du6XOVBprYH-8">
          <mxGeometry relative="1" as="geometry" />
        </mxCell>
        <mxCell id="hVl5hp2g6du6XOVBprYH-17" style="edgeStyle=orthogonalEdgeStyle;rounded=0;orthogonalLoop=1;jettySize=auto;html=1;entryX=0.5;entryY=0;entryDx=0;entryDy=0;endArrow=none;endFill=0;" edge="1" parent="hVl5hp2g6du6XOVBprYH-1" source="hVl5hp2g6du6XOVBprYH-14" target="hVl5hp2g6du6XOVBprYH-10">
          <mxGeometry relative="1" as="geometry" />
        </mxCell>
        <mxCell id="hVl5hp2g6du6XOVBprYH-14" value="recommends" style="rhombus;whiteSpace=wrap;html=1;fillColor=none;" vertex="1" parent="hVl5hp2g6du6XOVBprYH-1">
          <mxGeometry x="320" y="71" width="100" height="80" as="geometry" />
        </mxCell>
        <mxCell id="hVl5hp2g6du6XOVBprYH-18" value="1..*" style="text;html=1;strokeColor=none;fillColor=none;align=center;verticalAlign=middle;whiteSpace=wrap;rounded=0;" vertex="1" parent="hVl5hp2g6du6XOVBprYH-1">
          <mxGeometry x="200" y="83" width="60" height="30" as="geometry" />
        </mxCell>
        <mxCell id="hVl5hp2g6du6XOVBprYH-19" value="1..*" style="text;html=1;strokeColor=none;fillColor=none;align=center;verticalAlign=middle;whiteSpace=wrap;rounded=0;" vertex="1" parent="hVl5hp2g6du6XOVBprYH-1">
          <mxGeometry x="470" y="83" width="60" height="30" as="geometry" />
        </mxCell>
        <mxCell id="hVl5hp2g6du6XOVBprYH-20" value="1..*" style="text;html=1;strokeColor=none;fillColor=none;align=center;verticalAlign=middle;whiteSpace=wrap;rounded=0;" vertex="1" parent="hVl5hp2g6du6XOVBprYH-1">
          <mxGeometry x="370" y="250" width="60" height="30" as="geometry" />
        </mxCell>
        <mxCell id="hVl5hp2g6du6XOVBprYH-21" style="edgeStyle=orthogonalEdgeStyle;rounded=0;orthogonalLoop=1;jettySize=auto;html=1;endArrow=none;endFill=0;" edge="1" parent="hVl5hp2g6du6XOVBprYH-1" source="hVl5hp2g6du6XOVBprYH-12" target="hVl5hp2g6du6XOVBprYH-2">
          <mxGeometry relative="1" as="geometry" />
        </mxCell>
        <mxCell id="hVl5hp2g6du6XOVBprYH-22" style="edgeStyle=orthogonalEdgeStyle;rounded=0;orthogonalLoop=1;jettySize=auto;html=1;endArrow=none;endFill=0;" edge="1" parent="hVl5hp2g6du6XOVBprYH-1" target="hVl5hp2g6du6XOVBprYH-6">
          <mxGeometry relative="1" as="geometry">
            <mxPoint x="450" y="339" as="sourcePoint" />
          </mxGeometry>
        </mxCell>
        <mxCell id="hVl5hp2g6du6XOVBprYH-23" value="teaches" style="text;html=1;strokeColor=none;fillColor=none;align=center;verticalAlign=middle;whiteSpace=wrap;rounded=0;" vertex="1" parent="hVl5hp2g6du6XOVBprYH-1">
          <mxGeometry x="529" y="304" width="60" height="30" as="geometry" />
        </mxCell>
        <mxCell id="hVl5hp2g6du6XOVBprYH-24" value="" style="triangle;whiteSpace=wrap;html=1;fillColor=#000000;direction=west;" vertex="1" parent="hVl5hp2g6du6XOVBprYH-1">
          <mxGeometry x="510" y="310.5" width="19" height="17" as="geometry" />
        </mxCell>
        <mxCell id="hVl5hp2g6du6XOVBprYH-25" value="0..*" style="text;html=1;strokeColor=none;fillColor=none;align=center;verticalAlign=middle;whiteSpace=wrap;rounded=0;" vertex="1" parent="hVl5hp2g6du6XOVBprYH-1">
          <mxGeometry x="610" y="156" width="60" height="30" as="geometry" />
        </mxCell>
        <mxCell id="hVl5hp2g6du6XOVBprYH-26" value="0..*" style="text;html=1;strokeColor=none;fillColor=none;align=center;verticalAlign=middle;whiteSpace=wrap;rounded=0;" vertex="1" parent="hVl5hp2g6du6XOVBprYH-1">
          <mxGeometry x="450" y="340" width="60" height="30" as="geometry" />
        </mxCell>
        <mxCell id="hVl5hp2g6du6XOVBprYH-27" value="has" style="text;html=1;strokeColor=none;fillColor=none;align=center;verticalAlign=middle;whiteSpace=wrap;rounded=0;" vertex="1" parent="hVl5hp2g6du6XOVBprYH-1">
          <mxGeometry x="184.5" y="323" width="60" height="30" as="geometry" />
        </mxCell>
        <mxCell id="hVl5hp2g6du6XOVBprYH-28" value="" style="triangle;whiteSpace=wrap;html=1;fillColor=#000000;direction=west;" vertex="1" parent="hVl5hp2g6du6XOVBprYH-1">
          <mxGeometry x="165.5" y="329.5" width="19" height="17" as="geometry" />
        </mxCell>
        <mxCell id="hVl5hp2g6du6XOVBprYH-29" value="1..*" style="text;html=1;strokeColor=none;fillColor=none;align=center;verticalAlign=middle;whiteSpace=wrap;rounded=0;" vertex="1" parent="hVl5hp2g6du6XOVBprYH-1">
          <mxGeometry x="60" y="160" width="60" height="30" as="geometry" />
        </mxCell>
        <mxCell id="hVl5hp2g6du6XOVBprYH-30" value="0..*" style="text;html=1;strokeColor=none;fillColor=none;align=center;verticalAlign=middle;whiteSpace=wrap;rounded=0;" vertex="1" parent="hVl5hp2g6du6XOVBprYH-1">
          <mxGeometry x="230" y="353" width="60" height="30" as="geometry" />
        </mxCell>
        <mxCell id="hVl5hp2g6du6XOVBprYH-39" style="edgeStyle=orthogonalEdgeStyle;rounded=0;orthogonalLoop=1;jettySize=auto;html=1;endArrow=none;endFill=0;" edge="1" parent="hVl5hp2g6du6XOVBprYH-1" source="hVl5hp2g6du6XOVBprYH-31" target="hVl5hp2g6du6XOVBprYH-10">
          <mxGeometry relative="1" as="geometry" />
        </mxCell>
        <mxCell id="hVl5hp2g6du6XOVBprYH-31" value="Course" style="swimlane;fontStyle=0;childLayout=stackLayout;horizontal=1;startSize=26;horizontalStack=0;resizeParent=1;resizeParentMax=0;resizeLast=0;collapsible=1;marginBottom=0;align=center;fontSize=14;fillColor=none;" vertex="1" parent="hVl5hp2g6du6XOVBprYH-1">
          <mxGeometry x="290" y="520" width="160" height="116" as="geometry" />
        </mxCell>
        <mxCell id="hVl5hp2g6du6XOVBprYH-32" value="Item 1" style="text;strokeColor=none;fillColor=none;spacingLeft=4;spacingRight=4;overflow=hidden;rotatable=0;points=[[0,0.5],[1,0.5]];portConstraint=eastwest;fontSize=12;" vertex="1" parent="hVl5hp2g6du6XOVBprYH-31">
          <mxGeometry y="26" width="160" height="30" as="geometry" />
        </mxCell>
        <mxCell id="hVl5hp2g6du6XOVBprYH-33" value="Item 2" style="text;strokeColor=none;fillColor=none;spacingLeft=4;spacingRight=4;overflow=hidden;rotatable=0;points=[[0,0.5],[1,0.5]];portConstraint=eastwest;fontSize=12;" vertex="1" parent="hVl5hp2g6du6XOVBprYH-31">
          <mxGeometry y="56" width="160" height="30" as="geometry" />
        </mxCell>
        <mxCell id="hVl5hp2g6du6XOVBprYH-34" value="Item 3" style="text;strokeColor=none;fillColor=none;spacingLeft=4;spacingRight=4;overflow=hidden;rotatable=0;points=[[0,0.5],[1,0.5]];portConstraint=eastwest;fontSize=12;" vertex="1" parent="hVl5hp2g6du6XOVBprYH-31">
          <mxGeometry y="86" width="160" height="30" as="geometry" />
        </mxCell>
        <mxCell id="hVl5hp2g6du6XOVBprYH-47" style="edgeStyle=orthogonalEdgeStyle;rounded=0;orthogonalLoop=1;jettySize=auto;html=1;entryX=1;entryY=0.5;entryDx=0;entryDy=0;endArrow=none;endFill=0;" edge="1" parent="hVl5hp2g6du6XOVBprYH-1" source="hVl5hp2g6du6XOVBprYH-35" target="hVl5hp2g6du6XOVBprYH-13">
          <mxGeometry relative="1" as="geometry" />
        </mxCell>
        <mxCell id="hVl5hp2g6du6XOVBprYH-35" value="Student" style="swimlane;fontStyle=0;childLayout=stackLayout;horizontal=1;startSize=26;horizontalStack=0;resizeParent=1;resizeParentMax=0;resizeLast=0;collapsible=1;marginBottom=0;align=center;fontSize=14;fillColor=none;" vertex="1" parent="hVl5hp2g6du6XOVBprYH-1">
          <mxGeometry x="640" y="520" width="160" height="116" as="geometry" />
        </mxCell>
        <mxCell id="hVl5hp2g6du6XOVBprYH-36" value="Item 1" style="text;strokeColor=none;fillColor=none;spacingLeft=4;spacingRight=4;overflow=hidden;rotatable=0;points=[[0,0.5],[1,0.5]];portConstraint=eastwest;fontSize=12;" vertex="1" parent="hVl5hp2g6du6XOVBprYH-35">
          <mxGeometry y="26" width="160" height="30" as="geometry" />
        </mxCell>
        <mxCell id="hVl5hp2g6du6XOVBprYH-37" value="Item 2" style="text;strokeColor=none;fillColor=none;spacingLeft=4;spacingRight=4;overflow=hidden;rotatable=0;points=[[0,0.5],[1,0.5]];portConstraint=eastwest;fontSize=12;" vertex="1" parent="hVl5hp2g6du6XOVBprYH-35">
          <mxGeometry y="56" width="160" height="30" as="geometry" />
        </mxCell>
        <mxCell id="hVl5hp2g6du6XOVBprYH-38" value="Item 3" style="text;strokeColor=none;fillColor=none;spacingLeft=4;spacingRight=4;overflow=hidden;rotatable=0;points=[[0,0.5],[1,0.5]];portConstraint=eastwest;fontSize=12;" vertex="1" parent="hVl5hp2g6du6XOVBprYH-35">
          <mxGeometry y="86" width="160" height="30" as="geometry" />
        </mxCell>
        <mxCell id="hVl5hp2g6du6XOVBprYH-40" value="consists of" style="text;html=1;strokeColor=none;fillColor=none;align=center;verticalAlign=middle;whiteSpace=wrap;rounded=0;" vertex="1" parent="hVl5hp2g6du6XOVBprYH-1">
          <mxGeometry x="371" y="450" width="60" height="30" as="geometry" />
        </mxCell>
        <mxCell id="hVl5hp2g6du6XOVBprYH-41" value="" style="triangle;whiteSpace=wrap;html=1;fillColor=#000000;direction=north;" vertex="1" parent="hVl5hp2g6du6XOVBprYH-1">
          <mxGeometry x="395" y="431" width="17" height="19" as="geometry" />
        </mxCell>
        <mxCell id="hVl5hp2g6du6XOVBprYH-42" value="0..*" style="text;html=1;strokeColor=none;fillColor=none;align=center;verticalAlign=middle;whiteSpace=wrap;rounded=0;" vertex="1" parent="hVl5hp2g6du6XOVBprYH-1">
          <mxGeometry x="310" y="490" width="60" height="30" as="geometry" />
        </mxCell>
        <mxCell id="hVl5hp2g6du6XOVBprYH-43" value="1..*" style="text;html=1;strokeColor=none;fillColor=none;align=center;verticalAlign=middle;whiteSpace=wrap;rounded=0;" vertex="1" parent="hVl5hp2g6du6XOVBprYH-1">
          <mxGeometry x="310" y="396" width="60" height="30" as="geometry" />
        </mxCell>
        <mxCell id="hVl5hp2g6du6XOVBprYH-44" style="edgeStyle=orthogonalEdgeStyle;rounded=0;orthogonalLoop=1;jettySize=auto;html=1;entryX=1;entryY=0.5;entryDx=0;entryDy=0;endArrow=none;endFill=0;" edge="1" parent="hVl5hp2g6du6XOVBprYH-1" source="hVl5hp2g6du6XOVBprYH-37" target="hVl5hp2g6du6XOVBprYH-33">
          <mxGeometry relative="1" as="geometry" />
        </mxCell>
        <mxCell id="hVl5hp2g6du6XOVBprYH-45" value="registers to" style="text;html=1;strokeColor=none;fillColor=none;align=center;verticalAlign=middle;whiteSpace=wrap;rounded=0;" vertex="1" parent="hVl5hp2g6du6XOVBprYH-1">
          <mxGeometry x="529" y="563" width="71" height="30" as="geometry" />
        </mxCell>
        <mxCell id="hVl5hp2g6du6XOVBprYH-46" value="" style="triangle;whiteSpace=wrap;html=1;fillColor=#000000;direction=west;" vertex="1" parent="hVl5hp2g6du6XOVBprYH-1">
          <mxGeometry x="510" y="569.5" width="19" height="17" as="geometry" />
        </mxCell>
        <mxCell id="hVl5hp2g6du6XOVBprYH-48" value="takes" style="text;html=1;strokeColor=none;fillColor=none;align=center;verticalAlign=middle;whiteSpace=wrap;rounded=0;" vertex="1" parent="hVl5hp2g6du6XOVBprYH-1">
          <mxGeometry x="544" y="353" width="60" height="30" as="geometry" />
        </mxCell>
        <mxCell id="hVl5hp2g6du6XOVBprYH-49" value="" style="triangle;whiteSpace=wrap;html=1;fillColor=#000000;direction=west;" vertex="1" parent="hVl5hp2g6du6XOVBprYH-1">
          <mxGeometry x="525" y="359.5" width="19" height="17" as="geometry" />
        </mxCell>
        <mxCell id="hVl5hp2g6du6XOVBprYH-50" value="1..*" style="text;html=1;strokeColor=none;fillColor=none;align=center;verticalAlign=middle;whiteSpace=wrap;rounded=0;" vertex="1" parent="hVl5hp2g6du6XOVBprYH-1">
          <mxGeometry x="450" y="383" width="60" height="30" as="geometry" />
        </mxCell>
        <mxCell id="hVl5hp2g6du6XOVBprYH-51" value="0..*" style="text;html=1;strokeColor=none;fillColor=none;align=center;verticalAlign=middle;whiteSpace=wrap;rounded=0;" vertex="1" parent="hVl5hp2g6du6XOVBprYH-1">
          <mxGeometry x="660" y="490" width="60" height="30" as="geometry" />
        </mxCell>
        <mxCell id="hVl5hp2g6du6XOVBprYH-52" value="0..1" style="text;html=1;strokeColor=none;fillColor=none;align=center;verticalAlign=middle;whiteSpace=wrap;rounded=0;" vertex="1" parent="hVl5hp2g6du6XOVBprYH-1">
          <mxGeometry x="450" y="593" width="60" height="30" as="geometry" />
        </mxCell>
        <mxCell id="hVl5hp2g6du6XOVBprYH-54" value="1..*" style="text;html=1;strokeColor=none;fillColor=none;align=center;verticalAlign=middle;whiteSpace=wrap;rounded=0;" vertex="1" parent="hVl5hp2g6du6XOVBprYH-1">
          <mxGeometry x="580" y="593" width="60" height="30" as="geometry" />
        </mxCell>
        <mxCell id="hVl5hp2g6du6XOVBprYH-57" value="mentors" style="text;html=1;strokeColor=none;fillColor=none;align=center;verticalAlign=middle;whiteSpace=wrap;rounded=0;" vertex="1" parent="hVl5hp2g6du6XOVBprYH-1">
          <mxGeometry x="740" y="45" width="60" height="30" as="geometry" />
        </mxCell>
        <mxCell id="hVl5hp2g6du6XOVBprYH-58" value="" style="triangle;whiteSpace=wrap;html=1;fillColor=#000000;direction=north;" vertex="1" parent="hVl5hp2g6du6XOVBprYH-1">
          <mxGeometry x="764" y="26" width="17" height="19" as="geometry" />
        </mxCell>
        <mxCell id="hVl5hp2g6du6XOVBprYH-59" value="0..*" style="text;html=1;strokeColor=none;fillColor=none;align=center;verticalAlign=middle;whiteSpace=wrap;rounded=0;" vertex="1" parent="hVl5hp2g6du6XOVBprYH-1">
          <mxGeometry x="690" y="80" width="60" height="30" as="geometry" />
        </mxCell>
        <mxCell id="hVl5hp2g6du6XOVBprYH-60" value="0..1" style="text;html=1;strokeColor=none;fillColor=none;align=center;verticalAlign=middle;whiteSpace=wrap;rounded=0;" vertex="1" parent="hVl5hp2g6du6XOVBprYH-1">
          <mxGeometry x="650" y="10" width="60" height="30" as="geometry" />
        </mxCell>
        <mxCell id="hVl5hp2g6du6XOVBprYH-61" style="edgeStyle=orthogonalEdgeStyle;rounded=0;orthogonalLoop=1;jettySize=auto;html=1;entryX=0.706;entryY=1.033;entryDx=0;entryDy=0;entryPerimeter=0;endArrow=none;endFill=0;" edge="1" parent="hVl5hp2g6du6XOVBprYH-1" source="hVl5hp2g6du6XOVBprYH-9" target="hVl5hp2g6du6XOVBprYH-34">
          <mxGeometry relative="1" as="geometry">
            <Array as="points">
              <mxPoint x="820" y="130" />
              <mxPoint x="820" y="720" />
              <mxPoint x="403" y="720" />
            </Array>
          </mxGeometry>
        </mxCell>
        <mxCell id="hVl5hp2g6du6XOVBprYH-62" value="manages" style="text;html=1;strokeColor=none;fillColor=none;align=center;verticalAlign=middle;whiteSpace=wrap;rounded=0;" vertex="1" parent="hVl5hp2g6du6XOVBprYH-1">
          <mxGeometry x="599" y="720" width="71" height="30" as="geometry" />
        </mxCell>
        <mxCell id="hVl5hp2g6du6XOVBprYH-63" value="" style="triangle;whiteSpace=wrap;html=1;fillColor=#000000;direction=west;" vertex="1" parent="hVl5hp2g6du6XOVBprYH-1">
          <mxGeometry x="580" y="726.5" width="19" height="17" as="geometry" />
        </mxCell>
        <mxCell id="hVl5hp2g6du6XOVBprYH-64" value="1..1" style="text;html=1;strokeColor=none;fillColor=none;align=center;verticalAlign=middle;whiteSpace=wrap;rounded=0;" vertex="1" parent="hVl5hp2g6du6XOVBprYH-1">
          <mxGeometry x="690" y="126" width="60" height="30" as="geometry" />
        </mxCell>
        <mxCell id="hVl5hp2g6du6XOVBprYH-65" value="0..1" style="text;html=1;strokeColor=none;fillColor=none;align=center;verticalAlign=middle;whiteSpace=wrap;rounded=0;" vertex="1" parent="hVl5hp2g6du6XOVBprYH-1">
          <mxGeometry x="395" y="636" width="60" height="30" as="geometry" />
        </mxCell>
        <mxCell id="hVl5hp2g6du6XOVBprYH-66" style="edgeStyle=orthogonalEdgeStyle;rounded=0;orthogonalLoop=1;jettySize=auto;html=1;exitX=1;exitY=0.5;exitDx=0;exitDy=0;entryX=0.225;entryY=1;entryDx=0;entryDy=0;entryPerimeter=0;endArrow=none;endFill=0;" edge="1" parent="hVl5hp2g6du6XOVBprYH-1" source="hVl5hp2g6du6XOVBprYH-11" target="hVl5hp2g6du6XOVBprYH-9">
          <mxGeometry relative="1" as="geometry">
            <Array as="points">
              <mxPoint x="450" y="300" />
              <mxPoint x="566" y="300" />
            </Array>
          </mxGeometry>
        </mxCell>
        <mxCell id="hVl5hp2g6du6XOVBprYH-67" value="is responsible for" style="text;html=1;strokeColor=none;fillColor=none;align=center;verticalAlign=middle;whiteSpace=wrap;rounded=0;" vertex="1" parent="hVl5hp2g6du6XOVBprYH-1">
          <mxGeometry x="509" y="270" width="101" height="30" as="geometry" />
        </mxCell>
        <mxCell id="hVl5hp2g6du6XOVBprYH-68" value="" style="triangle;whiteSpace=wrap;html=1;fillColor=#000000;direction=west;" vertex="1" parent="hVl5hp2g6du6XOVBprYH-1">
          <mxGeometry x="490" y="276.5" width="19" height="17" as="geometry" />
        </mxCell>
        <mxCell id="hVl5hp2g6du6XOVBprYH-69" value="0..*" style="text;html=1;strokeColor=none;fillColor=none;align=center;verticalAlign=middle;whiteSpace=wrap;rounded=0;" vertex="1" parent="hVl5hp2g6du6XOVBprYH-1">
          <mxGeometry x="449" y="297.5" width="60" height="30" as="geometry" />
        </mxCell>
        <mxCell id="hVl5hp2g6du6XOVBprYH-70" value="1..1" style="text;html=1;strokeColor=none;fillColor=none;align=center;verticalAlign=middle;whiteSpace=wrap;rounded=0;" vertex="1" parent="hVl5hp2g6du6XOVBprYH-1">
          <mxGeometry x="504.5" y="160" width="60" height="30" as="geometry" />
        </mxCell>
      </root>
    </mxGraphModel>
  </diagram>
</mxfile>
